<svg xmlns="http://www.w3.org/2000/svg" viewBox="0 0 200 200" role="img" aria-label="Valor Buildcon LLP logo">
  <title>Valor Buildcon LLP</title>
  <path fill="#0C5F26" d="M34 134c6-28 30-70 78-100l-16 108c-18 20-40 28-64 22z" />
  <path fill="#0A3F1B" d="M166 138c-6-28-30-70-78-100l16 108c18 20 40 28 64 22z" />
  <path fill="#26C544" d="M96 46c20-16 52-22 80-10 18 8 26 24 18 40l-78 18z" />
  <path fill="#6FEC63" d="M84 82c8-20 22-34 38-38l-10 42z" />
  <text x="100" y="184" font-family="Arial,Helvetica,sans-serif" font-weight="700" font-size="28" text-anchor="middle" fill="#4DA6E5">VALOR BUILDCON</text>
  <text x="100" y="198" font-family="Arial,Helvetica,sans-serif" font-size="10" text-anchor="middle" fill="#1D3F6E" letter-spacing="1">EXPERIENCE THE EXELENCE</text>
</svg>
